{
	"asset":{
		"generator":"Khronos glTF Blender I/O v3.6.27",
		"version":"2.0"
	},
	"extensionsUsed":[
		"KHR_materials_specular",
		"KHR_materials_ior"
	],
	"scene":0,
	"scenes":[
		{
			"name":"Scene",
			"nodes":[
				0,
				1,
				2,
				3,
				4,
				5,
				6
			]
		}
	],
	"nodes":[
		{
			"mesh":0,
			"name":"bottom",
			"scale":[
				1.0775601863861084,
				1.0775601863861084,
				1.0775601863861084
			],
			"translation":[
				0.010755442082881927,
				0.20312899351119995,
				-0.01824250817298889
			]
		},
		{
			"mesh":1,
			"name":"body",
			"scale":[
				0.38432759046554565,
				0.38432759046554565,
				0.38432759046554565
			],
			"translation":[
				0.010755442082881927,
				-0.4133751392364502,
				0.021432161331176758
			]
		},
		{
			"mesh":2,
			"name":"rotation",
			"rotation":[
				0.7077862024307251,
				0,
				0,
				0.7064266800880432
			],
			"scale":[
				0.31943199038505554,
				0.31943199038505554,
				0.31943199038505554
			],
			"translation":[
				0.010755442082881927,
				-0.6172449588775635,
				0.4924760162830353
			]
		},
		{
			"mesh":3,
			"name":"emoticon-body",
			"scale":[
				0.036057259887456894,
				0.036057259887456894,
				0.036057259887456894
			],
			"translation":[
				-0.007512353360652924,
				0.7726215124130249,
				-0.01824250817298889
			]
		},
		{
			"mesh":4,
			"name":"emoticon",
			"rotation":[
				0.7077862024307251,
				0,
				0,
				0.7064266800880432
			],
			"scale":[
				0.12611179053783417,
				0.12611179053783417,
				0.12611179053783417
			],
			"translation":[
				0.011682257056236267,
				0.820870041847229,
				0.08321738243103027
			]
		},
		{
			"mesh":5,
			"name":"flower 2",
			"rotation":[
				0.7077862620353699,
				0,
				0,
				0.7064266800880432
			],
			"scale":[
				0.03747430443763733,
				0.03747430071234703,
				0.03747430071234703
			],
			"translation":[
				-0.04630931466817856,
				0.44173455238342285,
				0.09997451305389404
			]
		},
		{
			"mesh":6,
			"name":"flower",
			"rotation":[
				0.7077862620353699,
				0,
				0,
				0.7064266800880432
			],
			"scale":[
				0.03747430443763733,
				0.03747430071234703,
				0.03747430071234703
			],
			"translation":[
				-0.04630931466817856,
				-0.3296518921852112,
				0.25916042923927307
			]
		}
	],
	"materials":[
		{
			"doubleSided":true,
			"extensions":{
				"KHR_materials_specular":{
					"specularColorFactor":[
						1.7449611834508807,
						1.7449611834508807,
						1.7449611834508807
					]
				},
				"KHR_materials_ior":{
					"ior":1.4500000476837158
				}
			},
			"name":"Material.002",
			"pbrMetallicRoughness":{
				"baseColorFactor":[
					0.8000000715255737,
					0.008325055241584778,
					0.08832082897424698,
					1
				],
				"metallicFactor":0.22641509771347046,
				"roughnessFactor":0.3396226167678833
			}
		},
		{
			"doubleSided":true,
			"name":"Material.001",
			"pbrMetallicRoughness":{
				"baseColorFactor":[
					0.018280092626810074,
					0.6173802614212036,
					0.8000000715255737,
					1
				],
				"metallicFactor":0.5283018946647644,
				"roughnessFactor":0.5094339847564697
			}
		},
		{
			"doubleSided":true,
			"extensions":{
				"KHR_materials_specular":{
					"specularColorFactor":[
						0.7829954680661826,
						0.7829954680661826,
						0.7829954680661826
					]
				},
				"KHR_materials_ior":{
					"ior":1.4500000476837158
				}
			},
			"name":"Material.003",
			"pbrMetallicRoughness":{
				"baseColorFactor":[
					0.4454975128173828,
					0.8000000715255737,
					0.6326655745506287,
					1
				],
				"metallicFactor":0.3113207519054413,
				"roughnessFactor":0.2924528419971466
			}
		},
		{
			"doubleSided":true,
			"extensions":{
				"KHR_materials_specular":{
					"specularColorFactor":[
						0.760624116479404,
						0.760624116479404,
						0.760624116479404
					]
				},
				"KHR_materials_ior":{
					"ior":1.4500000476837158
				}
			},
			"name":"Material.005",
			"pbrMetallicRoughness":{
				"baseColorFactor":[
					0,
					0,
					0,
					1
				],
				"metallicFactor":0.21698112785816193,
				"roughnessFactor":0.30188679695129395
			}
		}
	],
	"meshes":[
		{
			"name":"Cylinder",
			"primitives":[
				{
					"attributes":{
						"POSITION":0,
						"NORMAL":1,
						"TEXCOORD_0":2
					},
					"indices":3,
					"material":0
				}
			]
		},
		{
			"name":"Cube.001",
			"primitives":[
				{
					"attributes":{
						"POSITION":4,
						"NORMAL":5,
						"TEXCOORD_0":6
					},
					"indices":7,
					"material":1
				}
			]
		},
		{
			"name":"Cylinder.001",
			"primitives":[
				{
					"attributes":{
						"POSITION":8,
						"NORMAL":9,
						"TEXCOORD_0":10
					},
					"indices":11,
					"material":2
				}
			]
		},
		{
			"name":"Cube.005",
			"primitives":[
				{
					"attributes":{
						"POSITION":12,
						"NORMAL":13,
						"TEXCOORD_0":14
					},
					"indices":15,
					"material":3
				}
			]
		},
		{
			"name":"Cylinder.004",
			"primitives":[
				{
					"attributes":{
						"POSITION":16,
						"NORMAL":17,
						"TEXCOORD_0":18
					},
					"indices":11,
					"material":2
				}
			]
		},
		{
			"name":"Cylinder.009",
			"primitives":[
				{
					"attributes":{
						"POSITION":19,
						"NORMAL":20,
						"TEXCOORD_0":21
					},
					"indices":22,
					"material":0
				}
			]
		},
		{
			"name":"Cylinder.012",
			"primitives":[
				{
					"attributes":{
						"POSITION":23,
						"NORMAL":24,
						"TEXCOORD_0":25
					},
					"indices":22,
					"material":0
				}
			]
		}
	],
	"accessors":[
		{
			"bufferView":0,
			"componentType":5126,
			"count":227,
			"max":[
				1,
				-0.8921045660972595,
				1
			],
			"min":[
				-1,
				-1.084676742553711,
				-1
			],
			"type":"VEC3"
		},
		{
			"bufferView":1,
			"componentType":5126,
			"count":227,
			"type":"VEC3"
		},
		{
			"bufferView":2,
			"componentType":5126,
			"count":227,
			"type":"VEC2"
		},
		{
			"bufferView":3,
			"componentType":5123,
			"count":948,
			"type":"SCALAR"
		},
		{
			"bufferView":4,
			"componentType":5126,
			"count":5889,
			"max":[
				0.925839900970459,
				2.784250497817993,
				0.25910618901252747
			],
			"min":[
				-0.9281419515609741,
				-0.9821474552154541,
				-0.4999792277812958
			],
			"type":"VEC3"
		},
		{
			"bufferView":5,
			"componentType":5126,
			"count":5889,
			"type":"VEC3"
		},
		{
			"bufferView":6,
			"componentType":5126,
			"count":5889,
			"type":"VEC2"
		},
		{
			"bufferView":7,
			"componentType":5123,
			"count":33792,
			"type":"SCALAR"
		},
		{
			"bufferView":8,
			"componentType":5126,
			"count":196,
			"max":[
				1,
				-0.8381476402282715,
				1.0035340785980225
			],
			"min":[
				-1,
				-1.0561498403549194,
				-0.9998920559883118
			],
			"type":"VEC3"
		},
		{
			"bufferView":9,
			"componentType":5126,
			"count":196,
			"type":"VEC3"
		},
		{
			"bufferView":10,
			"componentType":5126,
			"count":196,
			"type":"VEC2"
		},
		{
			"bufferView":11,
			"componentType":5123,
			"count":756,
			"type":"SCALAR"
		},
		{
			"bufferView":12,
			"componentType":5126,
			"count":2025,
			"max":[
				1.0000001192092896,
				0.9945521354675293,
				0.15224021673202515
			],
			"min":[
				-0.016705382615327835,
				-5.019338130950928,
				-0.6103157997131348
			],
			"type":"VEC3"
		},
		{
			"bufferView":13,
			"componentType":5126,
			"count":2025,
			"type":"VEC3"
		},
		{
			"bufferView":14,
			"componentType":5126,
			"count":2025,
			"type":"VEC2"
		},
		{
			"bufferView":15,
			"componentType":5123,
			"count":11520,
			"type":"SCALAR"
		},
		{
			"bufferView":16,
			"componentType":5126,
			"count":196,
			"max":[
				1,
				-0.7048494219779968,
				1.0032778978347778
			],
			"min":[
				-1,
				-1.0561498403549194,
				-0.9998920559883118
			],
			"type":"VEC3"
		},
		{
			"bufferView":17,
			"componentType":5126,
			"count":196,
			"type":"VEC3"
		},
		{
			"bufferView":18,
			"componentType":5126,
			"count":196,
			"type":"VEC2"
		},
		{
			"bufferView":19,
			"componentType":5126,
			"count":1372,
			"max":[
				4.264690399169922,
				-0.40612614154815674,
				3.8450002670288086
			],
			"min":[
				-1.159385323524475,
				-1.160683274269104,
				-2.1892552375793457
			],
			"type":"VEC3"
		},
		{
			"bufferView":20,
			"componentType":5126,
			"count":1372,
			"type":"VEC3"
		},
		{
			"bufferView":21,
			"componentType":5126,
			"count":1372,
			"type":"VEC2"
		},
		{
			"bufferView":22,
			"componentType":5123,
			"count":5292,
			"type":"SCALAR"
		},
		{
			"bufferView":23,
			"componentType":5126,
			"count":1372,
			"max":[
				4.264690399169922,
				-0.40612614154815674,
				3.8450002670288086
			],
			"min":[
				-1.159385323524475,
				-1.160683274269104,
				-2.1892552375793457
			],
			"type":"VEC3"
		},
		{
			"bufferView":24,
			"componentType":5126,
			"count":1372,
			"type":"VEC3"
		},
		{
			"bufferView":25,
			"componentType":5126,
			"count":1372,
			"type":"VEC2"
		}
	],
	"bufferViews":[
		{
			"buffer":0,
			"byteLength":2724,
			"byteOffset":0,
			"target":34962
		},
		{
			"buffer":0,
			"byteLength":2724,
			"byteOffset":2724,
			"target":34962
		},
		{
			"buffer":0,
			"byteLength":1816,
			"byteOffset":5448,
			"target":34962
		},
		{
			"buffer":0,
			"byteLength":1896,
			"byteOffset":7264,
			"target":34963
		},
		{
			"buffer":0,
			"byteLength":70668,
			"byteOffset":9160,
			"target":34962
		},
		{
			"buffer":0,
			"byteLength":70668,
			"byteOffset":79828,
			"target":34962
		},
		{
			"buffer":0,
			"byteLength":47112,
			"byteOffset":150496,
			"target":34962
		},
		{
			"buffer":0,
			"byteLength":67584,
			"byteOffset":197608,
			"target":34963
		},
		{
			"buffer":0,
			"byteLength":2352,
			"byteOffset":265192,
			"target":34962
		},
		{
			"buffer":0,
			"byteLength":2352,
			"byteOffset":267544,
			"target":34962
		},
		{
			"buffer":0,
			"byteLength":1568,
			"byteOffset":269896,
			"target":34962
		},
		{
			"buffer":0,
			"byteLength":1512,
			"byteOffset":271464,
			"target":34963
		},
		{
			"buffer":0,
			"byteLength":24300,
			"byteOffset":272976,
			"target":34962
		},
		{
			"buffer":0,
			"byteLength":24300,
			"byteOffset":297276,
			"target":34962
		},
		{
			"buffer":0,
			"byteLength":16200,
			"byteOffset":321576,
			"target":34962
		},
		{
			"buffer":0,
			"byteLength":23040,
			"byteOffset":337776,
			"target":34963
		},
		{
			"buffer":0,
			"byteLength":2352,
			"byteOffset":360816,
			"target":34962
		},
		{
			"buffer":0,
			"byteLength":2352,
			"byteOffset":363168,
			"target":34962
		},
		{
			"buffer":0,
			"byteLength":1568,
			"byteOffset":365520,
			"target":34962
		},
		{
			"buffer":0,
			"byteLength":16464,
			"byteOffset":367088,
			"target":34962
		},
		{
			"buffer":0,
			"byteLength":16464,
			"byteOffset":383552,
			"target":34962
		},
		{
			"buffer":0,
			"byteLength":10976,
			"byteOffset":400016,
			"target":34962
		},
		{
			"buffer":0,
			"byteLength":10584,
			"byteOffset":410992,
			"target":34963
		},
		{
			"buffer":0,
			"byteLength":16464,
			"byteOffset":421576,
			"target":34962
		},
		{
			"buffer":0,
			"byteLength":16464,
			"byteOffset":438040,
			"target":34962
		},
		{
			"buffer":0,
			"byteLength":10976,
			"byteOffset":454504,
			"target":34962
		}
	],
	"buffers":[
		{
			"byteLength":465480,
			"uri":"data:application/octet-stream;base64,"
		}
	]
}
