{
	"asset":{
		"generator":"Khronos glTF Blender I/O v3.6.27",
		"version":"2.0"
	},
	"extensionsUsed":[
		"KHR_materials_specular",
		"KHR_materials_ior"
	],
	"scene":0,
	"scenes":[
		{
			"name":"Scene",
			"nodes":[
				0
			]
		}
	],
	"nodes":[
		{
			"mesh":0,
			"name":"Torus",
			"rotation":[
				0,
				0,
				0.7454330921173096,
				0.6665804982185364
			]
		}
	],
	"materials":[
		{
			"doubleSided":true,
			"extensions":{
				"KHR_materials_specular":{
					"specularColorFactor":[
						1.7200692455917233,
						1.7200692455917233,
						1.7200692455917233
					]
				},
				"KHR_materials_ior":{
					"ior":1.4500000476837158
				}
			},
			"name":"Material.001",
			"pbrMetallicRoughness":{
				"baseColorFactor":[
					0.8000000715255737,
					0.3148472011089325,
					0.713664174079895,
					1
				],
				"metallicFactor":0,
				"roughnessFactor":0.23708921670913696
			}
		}
	],
	"meshes":[
		{
			"name":"Torus",
			"primitives":[
				{
					"attributes":{
						"POSITION":0,
						"NORMAL":1,
						"TEXCOORD_0":2
					},
					"indices":3,
					"material":0
				}
			]
		}
	],
	"accessors":[
		{
			"bufferView":0,
			"componentType":5126,
			"count":9457,
			"max":[
				1.2353026866912842,
				0.23883549869060516,
				1.2353025674819946
			],
			"min":[
				-1.2353029251098633,
				-0.23883549869060516,
				-1.2353026866912842
			],
			"type":"VEC3"
		},
		{
			"bufferView":1,
			"componentType":5126,
			"count":9457,
			"type":"VEC3"
		},
		{
			"bufferView":2,
			"componentType":5126,
			"count":9457,
			"type":"VEC2"
		},
		{
			"bufferView":3,
			"componentType":5123,
			"count":55296,
			"type":"SCALAR"
		}
	],
	"bufferViews":[
		{
			"buffer":0,
			"byteLength":113484,
			"byteOffset":0,
			"target":34962
		},
		{
			"buffer":0,
			"byteLength":113484,
			"byteOffset":113484,
			"target":34962
		},
		{
			"buffer":0,
			"byteLength":75656,
			"byteOffset":226968,
			"target":34962
		},
		{
			"buffer":0,
			"byteLength":110592,
			"byteOffset":302624,
			"target":34963
		}
	],
	"buffers":[
		{
			"byteLength":413216,
			"uri":"data:application/octet-stream;base64,"
		}
	]
}
