{
	"asset":{
		"generator":"Khronos glTF Blender I/O v3.6.27",
		"version":"2.0"
	},
	"extensionsUsed":[
		"KHR_materials_specular",
		"KHR_materials_ior"
	],
	"scene":0,
	"scenes":[
		{
			"name":"Scene",
			"nodes":[
				0
			]
		}
	],
	"nodes":[
		{
			"mesh":0,
			"name":"Cylinder"
		}
	],
	"materials":[
		{
			"doubleSided":true,
			"extensions":{
				"KHR_materials_specular":{
					"specularColorFactor":[
						2.371357614441398,
						2.371357614441398,
						2.371357614441398
					]
				},
				"KHR_materials_ior":{
					"ior":1.4500000476837158
				}
			},
			"name":"Material.001",
			"pbrMetallicRoughness":{
				"baseColorFactor":[
					0.8000000715255737,
					0.005633546505123377,
					0.021844955161213875,
					1
				],
				"metallicFactor":0,
				"roughnessFactor":0.35915493965148926
			}
		}
	],
	"meshes":[
		{
			"name":"Cylinder",
			"primitives":[
				{
					"attributes":{
						"POSITION":0,
						"NORMAL":1,
						"TEXCOORD_0":2
					},
					"indices":3,
					"material":0
				}
			]
		}
	],
	"accessors":[
		{
			"bufferView":0,
			"componentType":5126,
			"count":2063,
			"max":[
				0.9935951828956604,
				1.0000003576278687,
				0.9935951828956604
			],
			"min":[
				-0.9935951828956604,
				-0.6752141118049622,
				-0.9935952425003052
			],
			"type":"VEC3"
		},
		{
			"bufferView":1,
			"componentType":5126,
			"count":2063,
			"type":"VEC3"
		},
		{
			"bufferView":2,
			"componentType":5126,
			"count":2063,
			"type":"VEC2"
		},
		{
			"bufferView":3,
			"componentType":5123,
			"count":10752,
			"type":"SCALAR"
		}
	],
	"bufferViews":[
		{
			"buffer":0,
			"byteLength":24756,
			"byteOffset":0,
			"target":34962
		},
		{
			"buffer":0,
			"byteLength":24756,
			"byteOffset":24756,
			"target":34962
		},
		{
			"buffer":0,
			"byteLength":16504,
			"byteOffset":49512,
			"target":34962
		},
		{
			"buffer":0,
			"byteLength":21504,
			"byteOffset":66016,
			"target":34963
		}
	],
	"buffers":[
		{
			"byteLength":87520,
			"uri":"data:application/octet-stream;base64,"
		}
	]
}
