{
	"asset":{
		"generator":"Khronos glTF Blender I/O v3.6.27",
		"version":"2.0"
	},
	"extensionsUsed":[
		"KHR_materials_specular",
		"KHR_materials_ior"
	],
	"scene":0,
	"scenes":[
		{
			"name":"Scene",
			"nodes":[
				0
			]
		}
	],
	"nodes":[
		{
			"mesh":0,
			"name":"Circle"
		}
	],
	"materials":[
		{
			"doubleSided":true,
			"extensions":{
				"KHR_materials_specular":{
					"specularColorFactor":[
						0.13916419285477935,
						0.13916419285477935,
						0.13916419285477935
					]
				},
				"KHR_materials_ior":{
					"ior":1.4500000476837158
				}
			},
			"name":"Material.001",
			"pbrMetallicRoughness":{
				"baseColorFactor":[
					0.8000000715255737,
					0.5040106177330017,
					0.010395679622888565,
					1
				],
				"metallicFactor":0,
				"roughnessFactor":0.09624412655830383
			}
		}
	],
	"meshes":[
		{
			"name":"Circle",
			"primitives":[
				{
					"attributes":{
						"POSITION":0,
						"NORMAL":1,
						"TEXCOORD_0":2
					},
					"indices":3,
					"material":0
				}
			]
		}
	],
	"accessors":[
		{
			"bufferView":0,
			"componentType":5126,
			"count":2535,
			"max":[
				0.8660255670547485,
				1.2258585691452026,
				0.9970966577529907
			],
			"min":[
				-0.8660255670547485,
				0,
				-0.9980560541152954
			],
			"type":"VEC3"
		},
		{
			"bufferView":1,
			"componentType":5126,
			"count":2535,
			"type":"VEC3"
		},
		{
			"bufferView":2,
			"componentType":5126,
			"count":2535,
			"type":"VEC2"
		},
		{
			"bufferView":3,
			"componentType":5123,
			"count":9504,
			"type":"SCALAR"
		}
	],
	"bufferViews":[
		{
			"buffer":0,
			"byteLength":30420,
			"byteOffset":0,
			"target":34962
		},
		{
			"buffer":0,
			"byteLength":30420,
			"byteOffset":30420,
			"target":34962
		},
		{
			"buffer":0,
			"byteLength":20280,
			"byteOffset":60840,
			"target":34962
		},
		{
			"buffer":0,
			"byteLength":19008,
			"byteOffset":81120,
			"target":34963
		}
	],
	"buffers":[
		{
			"byteLength":100128,
			"uri":"data:application/octet-stream;base64,"
		}
	]
}
