{
	"asset":{
		"generator":"Khronos glTF Blender I/O v3.6.27",
		"version":"2.0"
	},
	"extensionsUsed":[
		"KHR_materials_specular",
		"KHR_materials_ior"
	],
	"scene":0,
	"scenes":[
		{
			"name":"Scene",
			"nodes":[
				0
			]
		}
	],
	"nodes":[
		{
			"mesh":0,
			"name":"Circle"
		}
	],
	"materials":[
		{
			"doubleSided":true,
			"extensions":{
				"KHR_materials_specular":{
					"specularColorFactor":[
						1.319276381477473,
						1.319276381477473,
						1.319276381477473
					]
				},
				"KHR_materials_ior":{
					"ior":1.4500000476837158
				}
			},
			"name":"Material.001",
			"pbrMetallicRoughness":{
				"baseColorFactor":[
					0.00405856454744935,
					0.19599059224128723,
					0.005153367295861244,
					1
				],
				"metallicFactor":0,
				"roughnessFactor":0.19014084339141846
			}
		}
	],
	"meshes":[
		{
			"name":"Circle",
			"primitives":[
				{
					"attributes":{
						"POSITION":0,
						"NORMAL":1,
						"TEXCOORD_0":2
					},
					"indices":3,
					"material":0
				}
			]
		}
	],
	"accessors":[
		{
			"bufferView":0,
			"componentType":5126,
			"count":2642,
			"max":[
				0.9460070133209229,
				1.135624885559082,
				0.9941872358322144
			],
			"min":[
				-0.9457955956459045,
				0,
				-0.8065181970596313
			],
			"type":"VEC3"
		},
		{
			"bufferView":1,
			"componentType":5126,
			"count":2642,
			"type":"VEC3"
		},
		{
			"bufferView":2,
			"componentType":5126,
			"count":2642,
			"type":"VEC2"
		},
		{
			"bufferView":3,
			"componentType":5123,
			"count":15840,
			"type":"SCALAR"
		}
	],
	"bufferViews":[
		{
			"buffer":0,
			"byteLength":31704,
			"byteOffset":0,
			"target":34962
		},
		{
			"buffer":0,
			"byteLength":31704,
			"byteOffset":31704,
			"target":34962
		},
		{
			"buffer":0,
			"byteLength":21136,
			"byteOffset":63408,
			"target":34962
		},
		{
			"buffer":0,
			"byteLength":31680,
			"byteOffset":84544,
			"target":34963
		}
	],
	"buffers":[
		{
			"byteLength":116224,
			"uri":"data:application/octet-stream;base64,"
		}
	]
}
