{
	"asset":{
		"generator":"Khronos glTF Blender I/O v3.6.27",
		"version":"2.0"
	},
	"extensionsUsed":[
		"KHR_materials_specular",
		"KHR_materials_ior"
	],
	"scene":0,
	"scenes":[
		{
			"name":"Scene",
			"nodes":[
				0,
				1,
				2
			]
		}
	],
	"nodes":[
		{
			"mesh":0,
			"name":"wings-left",
			"scale":[
				0.24826951324939728,
				0.24826951324939728,
				0.24826951324939728
			],
			"translation":[
				-0.10325001925230026,
				0.09628757834434509,
				-0.04923832416534424
			]
		},
		{
			"mesh":1,
			"name":"wings-connection-left",
			"rotation":[
				0.7077862024307251,
				0,
				0,
				0.7064266800880432
			],
			"scale":[
				0.03205040097236633,
				0.03205040097236633,
				0.03205040097236633
			],
			"translation":[
				-0.9188531041145325,
				0.19092535972595215,
				0.030606091022491455
			]
		},
		{
			"mesh":2,
			"name":"basket-left",
			"scale":[
				0.2790098786354065,
				0.2790098786354065,
				0.2790098786354065
			],
			"translation":[
				-0.9273207783699036,
				-0.22473257780075073,
				0.026073426008224487
			]
		}
	],
	"materials":[
		{
			"doubleSided":true,
			"extensions":{
				"KHR_materials_specular":{
					"specularColorFactor":[
						0.7829954680661826,
						0.7829954680661826,
						0.7829954680661826
					]
				},
				"KHR_materials_ior":{
					"ior":1.4500000476837158
				}
			},
			"name":"Material.003",
			"pbrMetallicRoughness":{
				"baseColorFactor":[
					0.4454975128173828,
					0.8000000715255737,
					0.6326655745506287,
					1
				],
				"metallicFactor":0.3113207519054413,
				"roughnessFactor":0.2924528419971466
			}
		},
		{
			"doubleSided":true,
			"extensions":{
				"KHR_materials_specular":{
					"specularColorFactor":[
						0.760624116479404,
						0.760624116479404,
						0.760624116479404
					]
				},
				"KHR_materials_ior":{
					"ior":1.4500000476837158
				}
			},
			"name":"Material.001",
			"pbrMetallicRoughness":{
				"baseColorFactor":[
					0,
					0,
					0,
					1
				],
				"metallicFactor":0.21698112785816193,
				"roughnessFactor":0.30188679695129395
			}
		},
		{
			"doubleSided":true,
			"extensions":{
				"KHR_materials_specular":{
					"specularColorFactor":[
						1.7449611834508807,
						1.7449611834508807,
						1.7449611834508807
					]
				},
				"KHR_materials_ior":{
					"ior":1.4500000476837158
				}
			},
			"name":"Material.004",
			"pbrMetallicRoughness":{
				"baseColorFactor":[
					0.8000000715255737,
					0.008325055241584778,
					0.08832082897424698,
					1
				],
				"metallicFactor":0.22641509771347046,
				"roughnessFactor":0.3396226167678833
			}
		}
	],
	"meshes":[
		{
			"name":"Cube.002",
			"primitives":[
				{
					"attributes":{
						"POSITION":0,
						"NORMAL":1,
						"TEXCOORD_0":2
					},
					"indices":3,
					"material":0
				}
			]
		},
		{
			"name":"Cylinder.002",
			"primitives":[
				{
					"attributes":{
						"POSITION":4,
						"NORMAL":5,
						"TEXCOORD_0":6
					},
					"indices":7,
					"material":1
				}
			]
		},
		{
			"name":"Cylinder.005",
			"primitives":[
				{
					"attributes":{
						"POSITION":8,
						"NORMAL":9,
						"TEXCOORD_0":10
					},
					"indices":11,
					"material":2
				},
				{
					"attributes":{
						"POSITION":12,
						"NORMAL":13,
						"TEXCOORD_0":14
					},
					"indices":15,
					"material":1
				}
			]
		}
	],
	"accessors":[
		{
			"bufferView":0,
			"componentType":5126,
			"count":2025,
			"max":[
				0.24131394922733307,
				1.5149976015090942,
				0.36404746770858765
			],
			"min":[
				-3.8965768814086914,
				0.019105060026049614,
				-0.2486388087272644
			],
			"type":"VEC3"
		},
		{
			"bufferView":1,
			"componentType":5126,
			"count":2025,
			"type":"VEC3"
		},
		{
			"bufferView":2,
			"componentType":5126,
			"count":2025,
			"type":"VEC2"
		},
		{
			"bufferView":3,
			"componentType":5123,
			"count":11520,
			"type":"SCALAR"
		},
		{
			"bufferView":4,
			"componentType":5126,
			"count":2063,
			"max":[
				0.9935951828956604,
				-0.425495445728302,
				0.9956130385398865
			],
			"min":[
				-0.9935951828956604,
				-1.054409146308899,
				-0.9926519393920898
			],
			"type":"VEC3"
		},
		{
			"bufferView":5,
			"componentType":5126,
			"count":2063,
			"type":"VEC3"
		},
		{
			"bufferView":6,
			"componentType":5126,
			"count":2063,
			"type":"VEC2"
		},
		{
			"bufferView":7,
			"componentType":5123,
			"count":10752,
			"type":"SCALAR"
		},
		{
			"bufferView":8,
			"componentType":5126,
			"count":7029,
			"max":[
				1.1839569807052612,
				1.5621142387390137,
				1.1839570999145508
			],
			"min":[
				-1.1839569807052612,
				-0.9990273118019104,
				-1.1839569807052612
			],
			"type":"VEC3"
		},
		{
			"bufferView":9,
			"componentType":5126,
			"count":7029,
			"type":"VEC3"
		},
		{
			"bufferView":10,
			"componentType":5126,
			"count":7029,
			"type":"VEC2"
		},
		{
			"bufferView":11,
			"componentType":5123,
			"count":39168,
			"type":"SCALAR"
		},
		{
			"bufferView":12,
			"componentType":5126,
			"count":2063,
			"max":[
				0.06258220225572586,
				1.4576786756515503,
				0.028247054666280746
			],
			"min":[
				0.005491070449352264,
				-0.959264874458313,
				-0.028844084590673447
			],
			"type":"VEC3"
		},
		{
			"bufferView":13,
			"componentType":5126,
			"count":2063,
			"type":"VEC3"
		},
		{
			"bufferView":14,
			"componentType":5126,
			"count":2063,
			"type":"VEC2"
		},
		{
			"bufferView":15,
			"componentType":5123,
			"count":10752,
			"type":"SCALAR"
		}
	],
	"bufferViews":[
		{
			"buffer":0,
			"byteLength":24300,
			"byteOffset":0,
			"target":34962
		},
		{
			"buffer":0,
			"byteLength":24300,
			"byteOffset":24300,
			"target":34962
		},
		{
			"buffer":0,
			"byteLength":16200,
			"byteOffset":48600,
			"target":34962
		},
		{
			"buffer":0,
			"byteLength":23040,
			"byteOffset":64800,
			"target":34963
		},
		{
			"buffer":0,
			"byteLength":24756,
			"byteOffset":87840,
			"target":34962
		},
		{
			"buffer":0,
			"byteLength":24756,
			"byteOffset":112596,
			"target":34962
		},
		{
			"buffer":0,
			"byteLength":16504,
			"byteOffset":137352,
			"target":34962
		},
		{
			"buffer":0,
			"byteLength":21504,
			"byteOffset":153856,
			"target":34963
		},
		{
			"buffer":0,
			"byteLength":84348,
			"byteOffset":175360,
			"target":34962
		},
		{
			"buffer":0,
			"byteLength":84348,
			"byteOffset":259708,
			"target":34962
		},
		{
			"buffer":0,
			"byteLength":56232,
			"byteOffset":344056,
			"target":34962
		},
		{
			"buffer":0,
			"byteLength":78336,
			"byteOffset":400288,
			"target":34963
		},
		{
			"buffer":0,
			"byteLength":24756,
			"byteOffset":478624,
			"target":34962
		},
		{
			"buffer":0,
			"byteLength":24756,
			"byteOffset":503380,
			"target":34962
		},
		{
			"buffer":0,
			"byteLength":16504,
			"byteOffset":528136,
			"target":34962
		},
		{
			"buffer":0,
			"byteLength":21504,
			"byteOffset":544640,
			"target":34963
		}
	],
	"buffers":[
		{
			"byteLength":566144,
			"uri":"data:application/octet-stream;base64,"
		}
	]
}
